<svg xmlns="http://www.w3.org/2000/svg"  viewBox="0 0 80 80" width="80px" height="80px"><path fill="#ffeea3" d="M35.353,67.588l-0.248-0.043c-1.556-0.275-3.116-0.693-4.637-1.245l-0.236-0.085l-8.673,5.726 l0.622-10.355l-0.192-0.162c-1.232-1.038-2.38-2.186-3.412-3.412l-0.162-0.192L8.06,58.441l5.727-8.673l-0.085-0.236 c-0.552-1.521-0.971-3.081-1.246-4.637l-0.043-0.248L3.118,40l9.293-4.647l0.043-0.248c0.275-1.557,0.694-3.117,1.246-4.637 l0.085-0.236L8.06,21.559l10.355,0.622l0.162-0.192c1.036-1.23,2.184-2.378,3.412-3.411l0.192-0.162L21.559,8.059l8.673,5.727 l0.236-0.085c1.52-0.552,3.08-0.971,4.637-1.246l0.248-0.043L40,3.118l4.647,9.293l0.248,0.043 c1.557,0.275,3.117,0.694,4.637,1.246l0.236,0.085l8.673-5.727l-0.622,10.356l0.192,0.162c1.228,1.033,2.375,2.181,3.412,3.411 l0.162,0.192l10.355-0.622l-5.727,8.673l0.085,0.236c0.552,1.52,0.971,3.08,1.246,4.637l0.043,0.248L76.882,40l-9.293,4.647 l-0.043,0.248c-0.275,1.556-0.694,3.116-1.246,4.637l-0.085,0.236l5.727,8.673l-10.355-0.622l-0.162,0.192 c-1.032,1.226-2.179,2.374-3.412,3.412l-0.192,0.162l0.622,10.355l-8.673-5.726L49.532,66.3c-1.521,0.552-3.082,0.97-4.637,1.245 l-0.248,0.043L40,76.882L35.353,67.588z"/><path fill="#ba9b48" d="M40,4.236l4.087,8.174l0.225,0.45l0.495,0.088c1.529,0.27,3.061,0.681,4.554,1.223l0.473,0.171 l0.419-0.277l7.629-5.037l-0.547,9.107l-0.03,0.502l0.384,0.324c1.207,1.016,2.334,2.143,3.351,3.351l0.324,0.384l0.501-0.03 l9.107-0.547l-5.037,7.629l-0.277,0.419l0.171,0.472c0.541,1.493,0.953,3.025,1.223,4.554l0.088,0.495l0.45,0.225L75.764,40 l-8.174,4.087l-0.45,0.225l-0.088,0.495c-0.27,1.529-0.681,3.06-1.223,4.553l-0.171,0.472l0.277,0.419l5.037,7.629l-9.107-0.547 l-0.502-0.03l-0.324,0.384c-1.015,1.206-2.143,2.334-3.351,3.351l-0.384,0.324l0.03,0.501l0.547,9.107l-7.629-5.037l-0.419-0.277 l-0.472,0.171c-1.493,0.541-3.025,0.953-4.554,1.223l-0.495,0.088l-0.225,0.45L40,75.764l-4.087-8.174l-0.225-0.45l-0.495-0.088 c-1.529-0.27-3.061-0.682-4.554-1.223l-0.473-0.171l-0.419,0.277l-7.629,5.037l0.547-9.107l0.03-0.501l-0.384-0.324 c-1.208-1.017-2.336-2.145-3.351-3.351l-0.324-0.384l-0.502,0.03l-9.107,0.547l5.037-7.629l0.277-0.419l-0.171-0.472 c-0.541-1.493-0.953-3.025-1.223-4.553l-0.088-0.495l-0.45-0.225L4.236,40l8.174-4.087l0.45-0.225l0.088-0.495 c0.27-1.529,0.681-3.061,1.223-4.554l0.171-0.472l-0.277-0.419l-5.037-7.629l9.107,0.547l0.501,0.03l0.324-0.384 c1.017-1.208,2.144-2.335,3.351-3.351l0.384-0.324l-0.03-0.502l-0.547-9.107l7.629,5.037l0.419,0.277l0.473-0.171 c1.493-0.541,3.025-0.953,4.554-1.223l0.495-0.088l0.225-0.45L40,4.236 M40,2l-4.981,9.963c-1.627,0.287-3.201,0.717-4.721,1.268 L21,7.091l0.666,11.103c-1.255,1.056-2.416,2.217-3.472,3.472L7.091,21l6.139,9.298c-0.551,1.519-0.98,3.093-1.268,4.721L2,40 l9.963,4.981c0.287,1.627,0.717,3.201,1.268,4.72L7.091,59l11.103-0.666c1.056,1.255,2.218,2.416,3.472,3.472L21,72.909 l9.298-6.139c1.519,0.551,3.094,0.98,4.721,1.268L40,78l4.981-9.963c1.627-0.287,3.201-0.717,4.721-1.268L59,72.909l-0.666-11.103 c1.255-1.056,2.416-2.217,3.472-3.472L72.909,59l-6.139-9.298c0.551-1.519,0.98-3.093,1.268-4.72L78,40l-9.963-4.981 c-0.287-1.627-0.717-3.201-1.268-4.721L72.909,21l-11.103,0.666c-1.056-1.255-2.217-2.416-3.472-3.472L59,7.091l-9.298,6.139 c-1.519-0.551-3.093-0.98-4.721-1.268L40,2L40,2z"/><path fill="#f5ce85" d="M40 20A20 20 0 1 0 40 60A20 20 0 1 0 40 20Z"/><path fill="#e1ebf2" d="M53.5,54h-41C10.025,54,8,51.975,8,49.5v0c0-2.475,2.025-4.5,4.5-4.5h41c2.475,0,4.5,2.025,4.5,4.5v0	C58,51.975,55.975,54,53.5,54z"/><path fill="#e1ebf2" d="M49.5 62h-39C8.025 62 6 59.975 6 57.5v0c0-2.475 2.025-4.5 4.5-4.5h39c2.475 0 4.5 2.025 4.5 4.5v0C54 59.975 51.975 62 49.5 62zM73.5 78h-55c-2.475 0-4.5-2.025-4.5-4.5v0c0-2.475 2.025-4.5 4.5-4.5h55c2.475 0 4.5 2.025 4.5 4.5v0C78 75.975 75.975 78 73.5 78z"/><path fill="#e1ebf2" d="M65.5 70h-59C4.025 70 2 67.975 2 65.5v0C2 63.025 4.025 61 6.5 61h59c2.475 0 4.5 2.025 4.5 4.5v0C70 67.975 67.975 70 65.5 70zM30.5 46h-24C4.025 46 2 43.975 2 41.5v0C2 39.025 4.025 37 6.5 37h24c2.475 0 4.5 2.025 4.5 4.5v0C35 43.975 32.975 46 30.5 46z"/><path fill="#f2faff" d="M40,60c5.069,0,9.683-1.901,13.208-5.008c-0.258-0.373-0.565-0.709-0.919-0.992H53.5	c0.291,0,0.574-0.033,0.85-0.086c1.447-1.492,2.652-3.212,3.581-5.096C57.597,46.666,55.742,45,53.5,45H33.288	C34.322,44.174,35,42.918,35,41.5c0-2.475-2.025-4.5-4.5-4.5H20.249C20.101,37.981,20,38.978,20,40C20,51.046,28.954,60,40,60z"/><path fill="#b0c1d4" d="M7 69H18V70H7z"/><path fill="#b0c1d4" d="M10.6,45l-1.2,1h0.312C8.678,46.826,8,48.082,8,49.5c0,1.458,0.714,2.748,1.798,3.571	C7.656,53.413,6,55.265,6,57.5c0,1.418,0.678,2.674,1.712,3.5H6.5C4.025,61,2,63.025,2,65.5C2,67.975,4.025,70,6.5,70H7v-1H6.5	C4.57,69,3,67.43,3,65.5S4.57,62,6.5,62h4H11v-1h-0.5C8.57,61,7,59.43,7,57.5S8.57,54,10.5,54h2H13v-1h-0.5C10.57,53,9,51.43,9,49.5	s1.57-3.5,3.5-3.5H13v-1h-0.5H10.6z"/><path fill="#b0c1d4" d="M73.5,69h-5.175c1.034-0.826,1.712-2.082,1.712-3.5c0-2.475-2.025-4.5-4.5-4.5H52.288	C53.322,60.174,54,58.918,54,57.5s-0.678-2.674-1.712-3.5H53.5c2.475,0,4.5-2.025,4.5-4.5c0-2.475-2.025-4.5-4.5-4.5H33.288	C34.322,44.174,35,42.918,35,41.5c0-2.475-2.025-4.5-4.5-4.5h-24C4.025,37,2,39.025,2,41.5C2,43.975,4.025,46,6.5,46H7v-1H6.5	C4.57,45,3,43.43,3,41.5S4.57,38,6.5,38h24c1.93,0,3.5,1.57,3.5,3.5S32.43,45,30.5,45H30v1h0.5h23c1.93,0,3.5,1.57,3.5,3.5	S55.43,53,53.5,53h-4H49v1h0.5c1.93,0,3.5,1.57,3.5,3.5S51.43,61,49.5,61H49v1h0.5h16.036c1.93,0,3.5,1.57,3.5,3.5	s-1.57,3.5-3.5,3.5H65v1h0.536H73.5c1.93,0,3.5,1.57,3.5,3.5S75.43,77,73.5,77h-55c-1.93,0-3.5-1.57-3.5-3.5s1.57-3.5,3.5-3.5H19v-1	h-0.5h-1.78l-1.28,1h0.272C14.678,70.826,14,72.082,14,73.5c0,2.475,2.025,4.5,4.5,4.5h55c2.475,0,4.5-2.025,4.5-4.5	C78,71.025,75.975,69,73.5,69z"/><path fill="#b0c1d4" d="M7 45H12V46H7z"/></svg>