<svg xmlns="http://www.w3.org/2000/svg"  viewBox="0 0 80 80" width="80px" height="80px"><path fill="#ffeea3" d="M16.942,36.165l-0.202-0.046c-0.334-0.077-0.666-0.155-0.989-0.254l-0.199-0.061l-5.08,2.701 L10.27,32.73l-0.151-0.141c-0.244-0.228-0.479-0.463-0.707-0.708L9.27,31.73l-5.772-0.202l2.7-5.08l-0.061-0.198 c-0.1-0.325-0.179-0.657-0.255-0.991l-0.046-0.202L0.943,22l4.893-3.058l0.046-0.202c0.076-0.334,0.155-0.667,0.255-0.991 l0.061-0.198l-2.7-5.08L9.27,12.27l0.142-0.152c0.228-0.245,0.463-0.48,0.707-0.708l0.151-0.141l0.202-5.772l5.08,2.701 l0.199-0.061c0.323-0.1,0.655-0.178,0.989-0.254l0.202-0.046L20,2.943l3.058,4.892l0.202,0.046 c0.334,0.077,0.666,0.155,0.989,0.254l0.199,0.061l5.08-2.701l0.202,5.772l0.151,0.141c0.244,0.228,0.479,0.463,0.707,0.708 l0.142,0.152l5.772,0.202l-2.7,5.08l0.061,0.198c0.1,0.325,0.179,0.657,0.255,0.991l0.046,0.202L39.057,22l-4.893,3.058 l-0.046,0.202c-0.076,0.334-0.155,0.667-0.255,0.991l-0.061,0.198l2.7,5.08L30.73,31.73l-0.142,0.152 c-0.228,0.245-0.463,0.48-0.707,0.708L29.73,32.73l-0.202,5.773l-5.08-2.701l-0.199,0.061c-0.323,0.1-0.655,0.178-0.989,0.254 l-0.202,0.046L20,41.057L16.942,36.165z"/><path fill="#c29653" d="M20,3.887l2.524,4.038l0.22,0.352l0.404,0.093c0.331,0.076,0.652,0.152,0.957,0.245L24.5,8.736 l0.366-0.195l4.19-2.228l0.167,4.766l0.014,0.414l0.303,0.282c0.235,0.219,0.465,0.449,0.684,0.684l0.282,0.303l0.414,0.014 l4.766,0.167l-2.228,4.19L33.264,17.5l0.121,0.396c0.094,0.306,0.169,0.627,0.245,0.957l0.093,0.404l0.352,0.22L38.113,22 l-4.038,2.523l-0.352,0.22l-0.093,0.404c-0.076,0.33-0.152,0.651-0.245,0.957L33.264,26.5l0.195,0.366l2.227,4.19l-4.766,0.167 l-0.414,0.014l-0.282,0.303c-0.219,0.235-0.449,0.465-0.684,0.684l-0.303,0.282l-0.014,0.414l-0.167,4.766l-4.19-2.228 L24.5,35.264l-0.396,0.121c-0.303,0.093-0.626,0.169-0.957,0.245l-0.404,0.093l-0.22,0.352L20,40.113l-2.523-4.038l-0.22-0.352 l-0.404-0.093c-0.331-0.076-0.654-0.152-0.957-0.245L15.5,35.264l-0.366,0.195l-4.19,2.228l-0.167-4.766l-0.014-0.414 l-0.303-0.282c-0.235-0.219-0.465-0.449-0.684-0.684l-0.282-0.303L9.08,31.223l-4.766-0.167l2.227-4.19L6.736,26.5l-0.121-0.396 c-0.094-0.306-0.169-0.627-0.245-0.957l-0.093-0.404l-0.352-0.22L1.887,22l4.038-2.523l0.352-0.22l0.093-0.404 c0.076-0.33,0.152-0.651,0.245-0.957L6.736,17.5l-0.195-0.366l-2.228-4.19l4.766-0.167l0.414-0.014l0.282-0.303 c0.219-0.235,0.449-0.465,0.684-0.684l0.303-0.282l0.014-0.414l0.167-4.766l4.19,2.228L15.5,8.736l0.396-0.121 c0.304-0.093,0.626-0.169,0.957-0.245l0.404-0.093l0.22-0.352L20,3.887 M20,2l-3.372,5.394c-0.345,0.079-0.69,0.161-1.025,0.264 L10,4.68l-0.223,6.365c-0.253,0.236-0.497,0.48-0.732,0.732L2.68,12l2.979,5.603c-0.103,0.336-0.184,0.68-0.264,1.025L0,22 l5.394,3.371c0.079,0.345,0.161,0.69,0.264,1.025L2.68,32l6.365,0.223c0.236,0.253,0.48,0.497,0.732,0.732L10,39.32l5.603-2.979 c0.336,0.103,0.68,0.184,1.026,0.264L20,42l3.371-5.394c0.345-0.079,0.69-0.161,1.026-0.264L30,39.32l0.223-6.365 c0.253-0.236,0.497-0.48,0.732-0.732L37.32,32l-2.979-5.603c0.103-0.336,0.184-0.68,0.264-1.025L40,22l-5.394-3.371 c-0.079-0.345-0.161-0.69-0.264-1.025L37.32,12l-6.365-0.223c-0.236-0.253-0.48-0.497-0.732-0.732L30,4.68l-5.603,2.979 c-0.336-0.103-0.68-0.184-1.025-0.264L20,2L20,2z"/><path fill="#f5ce85" d="M20 12A10 10 0 1 0 20 32A10 10 0 1 0 20 12Z"/><path fill="#e1ebf2" d="M14,71.5C6.556,71.5,0.5,65.444,0.5,58c0-5.186,3.041-9.974,7.747-12.198l0.271-0.128l0.014-0.301 C8.865,38.154,14.78,32.5,22,32.5c0.622,0,1.27,0.054,2.036,0.17l0.514,0.078l0.059-0.515C25.498,24.404,32.114,18.5,40,18.5 c5.574,0,10.746,3.025,13.497,7.895l0.166,0.293l0.334-0.043C54.756,26.546,55.393,26.5,56,26.5c8.547,0,15.5,6.953,15.5,15.5 l-0.006,0.294l0.248,0.292C76.527,45.354,79.5,50.495,79.5,56c0,8.547-6.953,15.5-15.5,15.5H14z"/><path fill="#b0c1d4" d="M40,19c5.395,0,10.4,2.928,13.062,7.64l0.331,0.586l0.668-0.086C54.8,27.045,55.416,27,56,27 c8.271,0,15,6.729,14.999,15.006c-0.003,0.046-0.006,0.092-0.007,0.138l-0.005,0.583l0.505,0.292C76.123,45.698,79,50.672,79,56 c0,8.271-6.729,15-15,15H14C6.832,71,1,65.168,1,58c0-4.994,2.928-9.604,7.46-11.746l0.544-0.257l0.028-0.601 C9.352,38.445,15.048,33,22,33c0.597,0,1.221,0.052,1.961,0.165l1.026,0.156l0.117-1.031C25.966,24.713,32.369,19,40,19 M40,18 c-8.219,0-14.982,6.2-15.889,14.176C23.421,32.071,22.72,32,22,32c-7.512,0-13.625,5.922-13.967,13.35C3.29,47.591,0,52.405,0,58 c0,7.732,6.268,14,14,14h50c8.837,0,16-7.163,16-16c0-5.922-3.226-11.08-8.008-13.847C71.993,42.102,72,42.052,72,42 c0-8.837-7.163-16-16-16c-0.702,0-1.389,0.061-2.068,0.148C51.187,21.288,45.981,18,40,18L40,18z"/><path fill="#fff" d="M8.887,47.158l0.544-0.257l0.544-0.257l0.028-0.601l0.028-0.601C10.326,39.026,15.584,34,22,34	c0.546,0,1.122,0.049,1.811,0.153l1.026,0.156l1.026,0.156l0.117-1.031l0.117-1.031C26.902,25.332,32.878,20,40,20v-1	c-7.631,0-14.034,5.713-14.895,13.289l-0.117,1.031l-1.026-0.156C23.221,33.052,22.597,33,22,33	c-6.952,0-12.648,5.445-12.968,12.396l-0.028,0.601L8.46,46.254C3.928,48.396,1,53.006,1,58h1C2,53.391,4.703,49.135,8.887,47.158z"/></svg>